<svg xmlns="http://www.w3.org/2000/svg" xmlns:xlink="http://www.w3.org/1999/xlink" xmlns:inkscape="http://www.inkscape.org/namespaces/inkscape" version="1.1" width="493.408" height="122.838" viewBox="0 0 493.408 122.838">
<defs>
<clipPath id="clip_1">
<path transform="matrix(1,0,0,-1,24.643,100.498)" d="M198.42687 39.68535V79.37071H277.79759V39.68535ZM277.79759 79.37071"/>
</clipPath>
</defs>
<path transform="matrix(1,0,0,-1,24.643,100.498)" d="M0 0V39.68535H158.74143V0ZM158.74143 39.68535" fill="#ececec"/>
<path transform="matrix(1,0,0,-1,24.643,100.498)" d="M0 39.68535V79.37071H39.68535V39.68535ZM39.68535 79.37071" fill="#cccccc"/>
<path transform="matrix(1,0,0,-1,24.643,100.498)" stroke-width="1.59404" stroke-linecap="butt" stroke-miterlimit="10" stroke-linejoin="miter" fill="none" stroke="#e60000" d="M0 19.84265H158.74143"/>
<path transform="matrix(1,0,0,-1,24.643,100.498)" stroke-width="1.59404" stroke-linecap="butt" stroke-miterlimit="10" stroke-linejoin="miter" fill="none" stroke="#cc0000" d="M0 59.52802H39.68535"/>
<path transform="matrix(1,0,0,-1,24.643,100.498)" stroke-width=".79701" stroke-linecap="butt" stroke-miterlimit="10" stroke-linejoin="miter" fill="none" stroke="#000000" d="M0 0H79.37071"/>
<path transform="matrix(1,0,0,-1,24.643,100.498)" stroke-width=".79701" stroke-linecap="butt" stroke-miterlimit="10" stroke-linejoin="miter" fill="none" stroke="#000000" d="M158.74143 0H79.37071"/>
<path transform="matrix(1,0,0,-1,24.643,100.498)" stroke-width=".79701" stroke-linecap="butt" stroke-miterlimit="10" stroke-linejoin="miter" fill="none" stroke="#000000" d="M158.74143 0V39.68535"/>
<path transform="matrix(1,0,0,-1,24.643,100.498)" stroke-width=".79701" stroke-linecap="butt" stroke-miterlimit="10" stroke-linejoin="miter" fill="none" stroke="#000000" d="M158.74143 39.68535H119.05606"/>
<path transform="matrix(1,0,0,-1,24.643,100.498)" stroke-width=".79701" stroke-linecap="butt" stroke-miterlimit="10" stroke-linejoin="miter" fill="none" stroke="#000000" d="M119.05606 39.68535H79.37071"/>
<path transform="matrix(1,0,0,-1,24.643,100.498)" stroke-width=".79701" stroke-linecap="butt" stroke-miterlimit="10" stroke-linejoin="miter" fill="none" stroke="#000000" d="M39.68535 39.68535H79.37071"/>
<path transform="matrix(1,0,0,-1,24.643,100.498)" stroke-width=".79701" stroke-linecap="butt" stroke-miterlimit="10" stroke-linejoin="miter" fill="none" stroke="#000000" d="M39.68535 39.68535V79.37071"/>
<path transform="matrix(1,0,0,-1,24.643,100.498)" stroke-width=".79701" stroke-linecap="butt" stroke-miterlimit="10" stroke-linejoin="miter" fill="none" stroke="#000000" d="M0 79.37071H39.68535"/>
<path transform="matrix(1,0,0,-1,24.643,100.498)" stroke-width=".79701" stroke-linecap="butt" stroke-miterlimit="10" stroke-linejoin="miter" fill="none" stroke="#000000" d="M0 0V39.68535"/>
<path transform="matrix(1,0,0,-1,24.643,100.498)" stroke-width=".79701" stroke-linecap="butt" stroke-miterlimit="10" stroke-linejoin="miter" fill="none" stroke="#000000" d="M0 39.68535V79.37071"/>
<path transform="matrix(1,0,0,-1,24.643,100.498)" stroke-width=".3985" stroke-linecap="butt" stroke-dasharray=".3985,1.99255" stroke-miterlimit="10" stroke-linejoin="miter" fill="none" stroke="#000000" d="M39.68535 39.68535V0"/>
<path transform="matrix(1,0,0,-1,24.643,100.498)" stroke-width=".3985" stroke-linecap="butt" stroke-dasharray=".3985,1.99255" stroke-miterlimit="10" stroke-linejoin="miter" fill="none" stroke="#000000" d="M79.37071 39.68535V0"/>
<path transform="matrix(1,0,0,-1,24.643,100.498)" stroke-width=".3985" stroke-linecap="butt" stroke-dasharray=".3985,1.99255" stroke-miterlimit="10" stroke-linejoin="miter" fill="none" stroke="#000000" d="M0 39.68535H39.68535"/>
<path transform="matrix(1,0,0,-1,24.643,100.498)" stroke-width=".3985" stroke-linecap="butt" stroke-dasharray=".3985,1.99255" stroke-miterlimit="10" stroke-linejoin="miter" fill="none" stroke="#000000" d="M119.05606 0V39.68535"/>
<text xml:space="preserve" transform="matrix(1 0 -0 1 0 122.838)" font-size="9.9626" font-family="Computer Modern" font-style="italic"><tspan y="-40.785" x="8.99">v</tspan></text>
<text xml:space="preserve" transform="matrix(1 0 -0 1 0 122.838)" font-size="6.9738" font-family="Computer Modern"><tspan y="-39.29" x="13.819">1</tspan></text>
<text xml:space="preserve" transform="matrix(1 0 -0 1 0 122.838)" font-size="9.9626" font-family="Computer Modern" font-style="italic"><tspan y="-40.785" x="189.737">v</tspan></text>
<text xml:space="preserve" transform="matrix(1 0 -0 1 0 122.838)" font-size="6.9738" font-family="Computer Modern"><tspan y="-39.29" x="194.566">1</tspan></text>
<text xml:space="preserve" transform="matrix(1 0 -0 1 0 122.838)" font-size="9.9626" font-family="Computer Modern" font-style="italic"><tspan y="-11.696" x="59.679">v</tspan></text>
<text xml:space="preserve" transform="matrix(1 0 -0 1 0 122.838)" font-size="6.9738" font-family="Computer Modern"><tspan y="-10.202" x="64.508">3</tspan></text>
<text xml:space="preserve" transform="matrix(1 0 -0 1 0 122.838)" font-size="9.9626" font-family="Computer Modern" font-style="italic"><tspan y="-11.696" x="139.048">v</tspan></text>
<text xml:space="preserve" transform="matrix(1 0 -0 1 0 122.838)" font-size="6.9738" font-family="Computer Modern"><tspan y="-10.202" x="143.877">3</tspan></text>
<text xml:space="preserve" transform="matrix(1 0 -0 1 0 122.838)" font-size="9.9626" font-family="Computer Modern" font-style="italic"><tspan y="-80.47" x="8.99">v</tspan></text>
<text xml:space="preserve" transform="matrix(1 0 -0 1 0 122.838)" font-size="6.9738" font-family="Computer Modern"><tspan y="-78.975" x="13.819">2</tspan></text>
<text xml:space="preserve" transform="matrix(1 0 -0 1 0 122.838)" font-size="9.9626" font-family="Computer Modern" font-style="italic"><tspan y="-80.47" x="70.682">v</tspan></text>
<text xml:space="preserve" transform="matrix(1 0 -0 1 0 122.838)" font-size="6.9738" font-family="Computer Modern"><tspan y="-78.975" x="75.511">2</tspan></text>
<text xml:space="preserve" transform="matrix(1 0 -0 1 -.0000076293949 122.838)" font-size="9.9626" font-family="Computer Modern" font-style="italic"><tspan y="-69.874" x="79.521">v</tspan></text>
<text xml:space="preserve" transform="matrix(1 0 -0 1 -.0000076293949 122.838)" font-size="6.9738" font-family="Computer Modern"><tspan y="-68.379" x="84.350009">4</tspan></text>
<text xml:space="preserve" transform="matrix(1 0 -0 1 0 122.838)" font-size="9.9626" font-family="Computer Modern" font-style="italic"><tspan y="-69.874" x="158.891">v</tspan></text>
<text xml:space="preserve" transform="matrix(1 0 -0 1 0 122.838)" font-size="6.9738" font-family="Computer Modern"><tspan y="-68.379" x="163.72">4</tspan></text>
<text xml:space="preserve" transform="matrix(1 0 -0 1 0 122.838)" font-size="9.9626" font-family="Computer Modern" font-style="italic"><tspan y="-69.874" x="119.206">v</tspan></text>
<text xml:space="preserve" transform="matrix(1 0 -0 1 0 122.838)" font-size="6.9738" font-family="Computer Modern"><tspan y="-68.379" x="124.035">5</tspan></text>
<text xml:space="preserve" transform="matrix(1 0 -0 1 0 122.838)" font-size="9.9626" font-family="Computer Modern" font-style="italic"><tspan y="-109.559" x="39.836">v</tspan></text>
<text xml:space="preserve" transform="matrix(1 0 -0 1 0 122.838)" font-size="6.9738" font-family="Computer Modern"><tspan y="-108.063999" x="44.664999">5</tspan></text>
<path transform="matrix(1,0,0,-1,24.643,100.498)" d="M1.99255 0C1.99255 1.10046 1.10046 1.99255 0 1.99255-1.10046 1.99255-1.99255 1.10046-1.99255 0-1.99255-1.10046-1.10046-1.99255 0-1.99255 1.10046-1.99255 1.99255-1.10046 1.99255 0ZM0 0" fill="#0000ff"/>
<path transform="matrix(1,0,0,-1,24.643,100.498)" stroke-width=".3985" stroke-linecap="butt" stroke-miterlimit="10" stroke-linejoin="miter" fill="none" stroke="#0000ff" d="M1.99255 0C1.99255 1.10046 1.10046 1.99255 0 1.99255-1.10046 1.99255-1.99255 1.10046-1.99255 0-1.99255-1.10046-1.10046-1.99255 0-1.99255 1.10046-1.99255 1.99255-1.10046 1.99255 0ZM0 0"/>
<path transform="matrix(1,0,0,-1,183.382,100.498)" d="M1.99255 0C1.99255 1.10046 1.10046 1.99255 0 1.99255-1.10046 1.99255-1.99255 1.10046-1.99255 0-1.99255-1.10046-1.10046-1.99255 0-1.99255 1.10046-1.99255 1.99255-1.10046 1.99255 0ZM0 0" fill="#0000ff"/>
<path transform="matrix(1,0,0,-1,183.382,100.498)" stroke-width=".3985" stroke-linecap="butt" stroke-miterlimit="10" stroke-linejoin="miter" fill="none" stroke="#0000ff" d="M1.99255 0C1.99255 1.10046 1.10046 1.99255 0 1.99255-1.10046 1.99255-1.99255 1.10046-1.99255 0-1.99255-1.10046-1.10046-1.99255 0-1.99255 1.10046-1.99255 1.99255-1.10046 1.99255 0ZM0 0"/>
<path transform="matrix(1,0,0,-1,143.697,60.813)" d="M1.99255 0C1.99255 1.10046 1.10046 1.99255 0 1.99255-1.10046 1.99255-1.99255 1.10046-1.99255 0-1.99255-1.10046-1.10046-1.99255 0-1.99255 1.10046-1.99255 1.99255-1.10046 1.99255 0ZM0 0" fill="#ff8000"/>
<path transform="matrix(1,0,0,-1,143.697,60.813)" stroke-width=".3985" stroke-linecap="butt" stroke-miterlimit="10" stroke-linejoin="miter" fill="none" stroke="#ff8000" d="M1.99255 0C1.99255 1.10046 1.10046 1.99255 0 1.99255-1.10046 1.99255-1.99255 1.10046-1.99255 0-1.99255-1.10046-1.10046-1.99255 0-1.99255 1.10046-1.99255 1.99255-1.10046 1.99255 0ZM0 0"/>
<path transform="matrix(1,0,0,-1,183.382,60.813)" d="M1.99255 0C1.99255 1.10046 1.10046 1.99255 0 1.99255-1.10046 1.99255-1.99255 1.10046-1.99255 0-1.99255-1.10046-1.10046-1.99255 0-1.99255 1.10046-1.99255 1.99255-1.10046 1.99255 0ZM0 0" fill="#0000ff"/>
<path transform="matrix(1,0,0,-1,183.382,60.813)" stroke-width=".3985" stroke-linecap="butt" stroke-miterlimit="10" stroke-linejoin="miter" fill="none" stroke="#0000ff" d="M1.99255 0C1.99255 1.10046 1.10046 1.99255 0 1.99255-1.10046 1.99255-1.99255 1.10046-1.99255 0-1.99255-1.10046-1.10046-1.99255 0-1.99255 1.10046-1.99255 1.99255-1.10046 1.99255 0ZM0 0"/>
<path transform="matrix(1,0,0,-1,183.382,60.813)" d="M1.99255 0C1.99255 1.10046 1.10046 1.99255 0 1.99255-1.10046 1.99255-1.99255 1.10046-1.99255 0-1.99255-1.10046-1.10046-1.99255 0-1.99255 1.10046-1.99255 1.99255-1.10046 1.99255 0ZM0 0" fill="#ff0000"/>
<path transform="matrix(1,0,0,-1,183.382,60.813)" stroke-width=".3985" stroke-linecap="butt" stroke-miterlimit="10" stroke-linejoin="miter" fill="none" stroke="#ff0000" d="M1.99255 0C1.99255 1.10046 1.10046 1.99255 0 1.99255-1.10046 1.99255-1.99255 1.10046-1.99255 0-1.99255-1.10046-1.10046-1.99255 0-1.99255 1.10046-1.99255 1.99255-1.10046 1.99255 0ZM0 0"/>
<path transform="matrix(1,0,0,-1,64.328,60.813)" d="M1.99255 0C1.99255 1.10046 1.10046 1.99255 0 1.99255-1.10046 1.99255-1.99255 1.10046-1.99255 0-1.99255-1.10046-1.10046-1.99255 0-1.99255 1.10046-1.99255 1.99255-1.10046 1.99255 0ZM0 0" fill="#ff0000"/>
<path transform="matrix(1,0,0,-1,64.328,60.813)" stroke-width=".3985" stroke-linecap="butt" stroke-miterlimit="10" stroke-linejoin="miter" fill="none" stroke="#ff0000" d="M1.99255 0C1.99255 1.10046 1.10046 1.99255 0 1.99255-1.10046 1.99255-1.99255 1.10046-1.99255 0-1.99255-1.10046-1.10046-1.99255 0-1.99255 1.10046-1.99255 1.99255-1.10046 1.99255 0ZM0 0"/>
<path transform="matrix(1,0,0,-1,24.643,60.813)" d="M1.99255 0C1.99255 1.10046 1.10046 1.99255 0 1.99255-1.10046 1.99255-1.99255 1.10046-1.99255 0-1.99255-1.10046-1.10046-1.99255 0-1.99255 1.10046-1.99255 1.99255-1.10046 1.99255 0ZM0 0" fill="#ff0000"/>
<path transform="matrix(1,0,0,-1,24.643,60.813)" stroke-width=".3985" stroke-linecap="butt" stroke-miterlimit="10" stroke-linejoin="miter" fill="none" stroke="#ff0000" d="M1.99255 0C1.99255 1.10046 1.10046 1.99255 0 1.99255-1.10046 1.99255-1.99255 1.10046-1.99255 0-1.99255-1.10046-1.10046-1.99255 0-1.99255 1.10046-1.99255 1.99255-1.10046 1.99255 0ZM0 0"/>
<path transform="matrix(1,0,0,-1,64.328,60.813)" d="M1.99255 0C1.99255 1.10046 1.10046 1.99255 0 1.99255-1.10046 1.99255-1.99255 1.10046-1.99255 0-1.99255-1.10046-1.10046-1.99255 0-1.99255 1.10046-1.99255 1.99255-1.10046 1.99255 0ZM0 0" fill="#ff0000"/>
<path transform="matrix(1,0,0,-1,64.328,60.813)" stroke-width=".3985" stroke-linecap="butt" stroke-miterlimit="10" stroke-linejoin="miter" fill="none" stroke="#ff0000" d="M1.99255 0C1.99255 1.10046 1.10046 1.99255 0 1.99255-1.10046 1.99255-1.99255 1.10046-1.99255 0-1.99255-1.10046-1.10046-1.99255 0-1.99255 1.10046-1.99255 1.99255-1.10046 1.99255 0ZM0 0"/>
<path transform="matrix(1,0,0,-1,104.013,100.498)" d="M1.99255 0C1.99255 1.10046 1.10046 1.99255 0 1.99255-1.10046 1.99255-1.99255 1.10046-1.99255 0-1.99255-1.10046-1.10046-1.99255 0-1.99255 1.10046-1.99255 1.99255-1.10046 1.99255 0ZM0 0" fill="#008000"/>
<path transform="matrix(1,0,0,-1,104.013,100.498)" stroke-width=".3985" stroke-linecap="butt" stroke-miterlimit="10" stroke-linejoin="miter" fill="none" stroke="#008000" d="M1.99255 0C1.99255 1.10046 1.10046 1.99255 0 1.99255-1.10046 1.99255-1.99255 1.10046-1.99255 0-1.99255-1.10046-1.10046-1.99255 0-1.99255 1.10046-1.99255 1.99255-1.10046 1.99255 0ZM0 0"/>
<path transform="matrix(1,0,0,-1,104.013,60.813)" d="M1.99255 0C1.99255 1.10046 1.10046 1.99255 0 1.99255-1.10046 1.99255-1.99255 1.10046-1.99255 0-1.99255-1.10046-1.10046-1.99255 0-1.99255 1.10046-1.99255 1.99255-1.10046 1.99255 0ZM0 0" fill="#ff8000"/>
<path transform="matrix(1,0,0,-1,104.013,60.813)" stroke-width=".3985" stroke-linecap="butt" stroke-miterlimit="10" stroke-linejoin="miter" fill="none" stroke="#ff8000" d="M1.99255 0C1.99255 1.10046 1.10046 1.99255 0 1.99255-1.10046 1.99255-1.99255 1.10046-1.99255 0-1.99255-1.10046-1.10046-1.99255 0-1.99255 1.10046-1.99255 1.99255-1.10046 1.99255 0ZM0 0"/>
<path transform="matrix(1,0,0,-1,24.643,21.127999)" d="M1.99255 0C1.99255 1.10046 1.10046 1.99255 0 1.99255-1.10046 1.99255-1.99255 1.10046-1.99255 0-1.99255-1.10046-1.10046-1.99255 0-1.99255 1.10046-1.99255 1.99255-1.10046 1.99255 0ZM0 0" fill="#ff8000"/>
<path transform="matrix(1,0,0,-1,24.643,21.127999)" stroke-width=".3985" stroke-linecap="butt" stroke-miterlimit="10" stroke-linejoin="miter" fill="none" stroke="#ff8000" d="M1.99255 0C1.99255 1.10046 1.10046 1.99255 0 1.99255-1.10046 1.99255-1.99255 1.10046-1.99255 0-1.99255-1.10046-1.10046-1.99255 0-1.99255 1.10046-1.99255 1.99255-1.10046 1.99255 0ZM0 0"/>
<path transform="matrix(1,0,0,-1,64.328,21.127999)" d="M1.99255 0C1.99255 1.10046 1.10046 1.99255 0 1.99255-1.10046 1.99255-1.99255 1.10046-1.99255 0-1.99255-1.10046-1.10046-1.99255 0-1.99255 1.10046-1.99255 1.99255-1.10046 1.99255 0ZM0 0" fill="#ff8000"/>
<path transform="matrix(1,0,0,-1,64.328,21.127999)" stroke-width=".3985" stroke-linecap="butt" stroke-miterlimit="10" stroke-linejoin="miter" fill="none" stroke="#ff8000" d="M1.99255 0C1.99255 1.10046 1.10046 1.99255 0 1.99255-1.10046 1.99255-1.99255 1.10046-1.99255 0-1.99255-1.10046-1.10046-1.99255 0-1.99255 1.10046-1.99255 1.99255-1.10046 1.99255 0ZM0 0"/>
<text fill="#cc0000" xml:space="preserve" transform="matrix(1 0 -0 1 0 122.838)" font-size="9.9626" font-family="Computer Modern" font-style="italic"><tspan y="-72.641" x="39.672">&#x03b3;</tspan></text>
<text fill="#cc0000" xml:space="preserve" transform="matrix(1 0 -0 1 0 122.838)" font-size="6.9738" font-family="Computer Modern"><tspan y="-71.145999" x="44.83">1</tspan></text>
<text fill="#e60000" xml:space="preserve" transform="matrix(1 0 -0 1 -.0000076293949 122.838008)" font-size="9.9626" font-family="Computer Modern" font-style="italic"><tspan y="-32.956" x="109.12">&#x03b3;</tspan></text>
<text fill="#e60000" xml:space="preserve" transform="matrix(1 0 -0 1 -.0000076293949 122.838008)" font-size="6.9738" font-family="Computer Modern"><tspan y="-31.461" x="114.278">2</tspan></text>
<path transform="matrix(1,0,0,-1,24.643,100.498)" d="M198.42687 0V39.68535H277.79759V0ZM277.79759 39.68535" fill="#ececec"/>
<g clip-path="url(#clip_1)">
<path transform="matrix(1,0,0,-1,24.643,100.498)" d="M277.79759 39.68535C277.79759 61.60324 260.03013 79.37071 238.11223 79.37071 216.19434 79.37071 198.42687 61.60324 198.42687 39.68535 198.42687 17.76746 216.19434 0 238.11223 0 260.03013 0 277.79759 17.76746 277.79759 39.68535ZM257.9549 39.68535C257.9549 50.64427 249.07115 59.528 238.11223 59.528 227.1533 59.528 218.26958 50.64427 218.26958 39.68535 218.26958 28.72643 227.1533 19.8427 238.11223 19.8427 249.07115 19.8427 257.9549 28.72643 257.9549 39.68535ZM238.11223 39.68535" fill="#cccccc" fill-rule="evenodd"/>
</g>
<path transform="matrix(1,0,0,-1,24.643,100.498)" d="M218.2695 39.68535C218.2695 41.4388 213.82764 42.86023 208.34819 42.86023 202.86875 42.86023 198.42687 41.4388 198.42687 39.68535 198.42687 37.93192 202.86875 36.51048 208.34819 36.51048 213.82764 36.51048 218.2695 37.93192 218.2695 39.68535ZM208.34819 39.68535" fill="#cccccc"/>
<path transform="matrix(1,0,0,-1,24.643,100.498)" d="M277.79756 39.68535C277.79756 41.4388 273.35569 42.86023 267.87626 42.86023 262.3968 42.86023 257.95494 41.4388 257.95494 39.68535 257.95494 37.93192 262.3968 36.51048 267.87626 36.51048 273.35569 36.51048 277.79756 37.93192 277.79756 39.68535ZM267.87626 39.68535" fill="#cccccc"/>
<path transform="matrix(1,0,0,-1,24.643,100.498)" stroke-width=".3985" stroke-linecap="butt" stroke-dasharray=".3985,1.99255" stroke-miterlimit="10" stroke-linejoin="miter" fill="none" stroke="#999999" d="M257.96174 39.68988 277.80668 0"/>
<path transform="matrix(1,0,0,-1,24.643,100.498)" stroke-width=".3985" stroke-linecap="butt" stroke-dasharray=".3985,1.99255" stroke-miterlimit="10" stroke-linejoin="miter" fill="none" stroke="#999999" d="M218.27179 39.68988 238.11223 0"/>
<path transform="matrix(1,0,0,-1,24.643,100.498)" stroke-width="1.59404" stroke-linecap="butt" stroke-dasharray="2.98883,2.98883" stroke-miterlimit="10" stroke-linejoin="miter" fill="none" stroke="#e60000" d="M198.42687 19.84265C198.42687 22.03456 216.19434 23.81142 238.11223 23.81142 260.03013 23.81142 277.79759 22.03456 277.79759 19.84265"/>
<path transform="matrix(1,0,0,-1,24.643,100.498)" stroke-width="1.59404" stroke-linecap="butt" stroke-miterlimit="10" stroke-linejoin="miter" fill="none" stroke="#e60000" d="M198.42687 19.84265C198.42687 17.65074 216.19434 15.87389 238.11223 15.87389 260.03013 15.87389 277.79759 17.65074 277.79759 19.84265"/>
<path transform="matrix(1,0,0,-1,24.643,100.498)" stroke-width="1.59404" stroke-linecap="butt" stroke-dasharray="2.98883,2.98883" stroke-miterlimit="10" stroke-linejoin="miter" fill="none" stroke="#cc0000" d="M238.11223 79.37071C240.30414 79.37071 242.081 74.92885 242.081 69.4494 242.081 63.96996 240.30414 59.52808 238.11223 59.52808"/>
<path transform="matrix(1,0,0,-1,24.643,100.498)" stroke-width="1.59404" stroke-linecap="butt" stroke-miterlimit="10" stroke-linejoin="miter" fill="none" stroke="#cc0000" d="M238.11223 79.37071C235.92032 79.37071 234.14347 74.92885 234.14347 69.4494 234.14347 63.96996 235.92032 59.52808 238.11223 59.52808"/>
<path transform="matrix(1,0,0,-1,24.643,100.498)" stroke-width=".79701" stroke-linecap="butt" stroke-miterlimit="10" stroke-linejoin="miter" fill="none" stroke="#000000" d="M198.42687 0H277.80668"/>
<path transform="matrix(1,0,0,-1,262.0524,100.498)" stroke-width=".6376" stroke-linecap="round" stroke-linejoin="round" fill="none" stroke="#000000" d="M-1.55415 2.0722C-1.42464 1.29512 0 .1295 .38852 0 0-.1295-1.42464-1.29512-1.55415-2.0722"/>
<path transform="matrix(1,0,0,-1,24.643,100.498)" stroke-width=".79701" stroke-linecap="butt" stroke-miterlimit="10" stroke-linejoin="miter" fill="none" stroke="#000000" d="M198.42687 0 218.27179 39.68988"/>
<path transform="matrix(.44717,-.89436,-.89436,-.44717,232.67507,81.28728)" stroke-width=".6376" stroke-linecap="round" stroke-linejoin="round" fill="none" stroke="#000000" d="M-1.55415 2.0722C-1.42464 1.29512 0 .1295 .38852 0 0-.1295-1.42464-1.29512-1.55415-2.0722"/>
<path transform="matrix(1,0,0,-1,24.643,100.498)" stroke-width=".79701" stroke-linecap="butt" stroke-miterlimit="10" stroke-linejoin="miter" fill="none" stroke="#000000" d="M218.27179 39.68988H257.96174"/>
<path transform="matrix(1,0,0,-1,262.05238,60.80812)" stroke-width=".6376" stroke-linecap="round" stroke-linejoin="round" fill="none" stroke="#000000" d="M-1.55415 2.0722C-1.42464 1.29512 0 .1295 .38852 0 0-.1295-1.42464-1.29512-1.55415-2.0722"/>
<path transform="matrix(1,0,0,-1,24.643,100.498)" stroke-width=".3985" stroke-linecap="butt" stroke-dasharray=".3985,1.99255" stroke-miterlimit="10" stroke-linejoin="miter" fill="none" stroke="#000000" d="M238.11223 0 257.96174 39.68988"/>
<path transform="matrix(1,0,0,-1,24.643,100.498)" stroke-width=".3985" stroke-linecap="butt" stroke-miterlimit="10" stroke-linejoin="miter" fill="none" stroke="#000000" d="M198.42687 0V39.68535"/>
<path transform="matrix(1,0,0,-1,24.643,100.498)" stroke-width=".3985" stroke-linecap="butt" stroke-miterlimit="10" stroke-linejoin="miter" fill="none" stroke="#000000" d="M277.80668 0 277.79759 39.68535"/>
<path transform="matrix(1,0,0,-1,24.643,100.498)" stroke-width=".79701" stroke-linecap="butt" stroke-dasharray="2.98883,2.98883" stroke-miterlimit="10" stroke-linejoin="miter" fill="none" stroke="#000000" d="M277.79759 39.68535C277.79759 41.4388 273.3557 42.86023 267.87629 42.86023 262.39683 42.86023 257.95497 41.4388 257.95497 39.68535"/>
<path transform="matrix(-.98784,.15532,.15532,.98784,288.8482,57.8517)" stroke-width=".6376" stroke-linecap="round" stroke-linejoin="round" fill="none" stroke="#000000" d="M-1.55415 2.0722C-1.42464 1.29512 0 .1295 .38852 0 0-.1295-1.42464-1.29512-1.55415-2.0722"/>
<path transform="matrix(1,0,0,-1,24.643,100.498)" stroke-width=".79701" stroke-linecap="butt" stroke-miterlimit="10" stroke-linejoin="miter" fill="none" stroke="#000000" d="M277.79759 39.68535C277.79759 37.93192 273.3557 36.51048 267.87629 36.51048 262.39683 36.51048 257.95497 37.93192 257.95497 39.68535"/>
<path transform="matrix(1,0,0,-1,24.643,100.498)" stroke-width=".3985" stroke-linecap="butt" stroke-dasharray=".3985,1.99255" stroke-miterlimit="10" stroke-linejoin="miter" fill="none" stroke="#000000" d="M218.2695 39.68535C218.2695 41.4388 213.82764 42.86023 208.34819 42.86023 202.86875 42.86023 198.42687 41.4388 198.42687 39.68535 198.42687 37.93192 202.86875 36.51048 208.34819 36.51048 213.82764 36.51048 218.2695 37.93192 218.2695 39.68535ZM208.34819 39.68535"/>
<path transform="matrix(1,0,0,-1,24.643,100.498)" stroke-width=".3985" stroke-linecap="butt" stroke-miterlimit="10" stroke-linejoin="miter" fill="none" stroke="#000000" d="M198.42687 39.68535C198.42687 61.60324 216.19434 79.37071 238.11223 79.37071 260.03013 79.37071 277.79759 61.60324 277.79759 39.68535"/>
<path transform="matrix(1,0,0,-1,24.643,100.498)" stroke-width=".79701" stroke-linecap="butt" stroke-miterlimit="10" stroke-linejoin="miter" fill="none" stroke="#000000" d="M218.26953 39.68535C218.26953 50.64427 227.15326 59.528 238.11219 59.528 249.0711 59.528 257.95484 50.64427 257.95484 39.68535"/>
<path transform="matrix(1,0,0,-1,262.04783,40.97)" stroke-width=".6376" stroke-linecap="round" stroke-linejoin="round" fill="none" stroke="#000000" d="M-1.55415 2.0722C-1.42464 1.29512 0 .1295 .38852 0 0-.1295-1.42464-1.29512-1.55415-2.0722"/>
<path transform="matrix(1,0,0,-1,24.643,100.498)" d="M200.54032 0C200.54032 1.16722 199.5941 2.11343 198.42687 2.11343 197.25965 2.11343 196.31343 1.16722 196.31343 0 196.31343-1.16722 197.25965-2.11343 198.42687-2.11343 199.5941-2.11343 200.54032-1.16722 200.54032 0ZM198.42687 0" fill="#0000ff"/>
<path transform="matrix(1,0,0,-1,24.643,100.498)" d="M220.38524 39.68988C220.38524 40.8571 219.43901 41.80331 218.27179 41.80331 217.10457 41.80331 216.15836 40.8571 216.15836 39.68988 216.15836 38.52266 217.10457 37.57645 218.27179 37.57645 219.43901 37.57645 220.38524 38.52266 220.38524 39.68988ZM218.27179 39.68988" fill="#ff0000"/>
<path transform="matrix(1,0,0,-1,24.643,100.498)" d="M260.07518 39.68988C260.07518 40.8571 259.12895 41.80331 257.96174 41.80331 256.7945 41.80331 255.84828 40.8571 255.84828 39.68988 255.84828 38.52266 256.7945 37.57645 257.96174 37.57645 259.12895 37.57645 260.07518 38.52266 260.07518 39.68988ZM257.96174 39.68988" fill="#ff8000"/>
<path transform="matrix(1,0,0,-1,24.643,100.498)" d="M279.9201 0C279.9201 1.16722 278.97389 2.11343 277.80668 2.11343 276.63945 2.11343 275.69325 1.16722 275.69325 0 275.69325-1.16722 276.63945-2.11343 277.80668-2.11343 278.97389-2.11343 279.9201-1.16722 279.9201 0ZM277.80668 0" fill="#008000"/>
<text xml:space="preserve" transform="matrix(1 0 -0 1 0 122.838)" font-size="9.9626" font-family="Computer Modern" font-style="italic"><tspan y="-11.696" x="258.103">v</tspan></text>
<text xml:space="preserve" transform="matrix(1 0 -0 1 0 122.838)" font-size="6.9738" font-family="Computer Modern"><tspan y="-10.202" x="262.932">3</tspan></text>
<text xml:space="preserve" transform="matrix(1 0 -0 1 .000015258789 122.838008)" font-size="9.9626" font-family="Computer Modern" font-style="italic"><tspan y="-50.706" x="226.355">v</tspan></text>
<text xml:space="preserve" transform="matrix(1 0 -0 1 .000015258789 122.838008)" font-size="6.9738" font-family="Computer Modern"><tspan y="-49.212" x="231.18399">1</tspan></text>
<text xml:space="preserve" transform="matrix(1 0 -0 1 0 122.838)" font-size="9.9626" font-family="Computer Modern" font-style="italic"><tspan y="-70.548" x="258.103">v</tspan></text>
<text xml:space="preserve" transform="matrix(1 0 -0 1 0 122.838)" font-size="6.9738" font-family="Computer Modern"><tspan y="-69.05399" x="262.932">2</tspan></text>
<text xml:space="preserve" transform="matrix(1 0 -0 1 0 122.838)" font-size="9.9626" font-family="Computer Modern" font-style="italic"><tspan y="-52.69" x="258.103">v</tspan></text>
<text xml:space="preserve" transform="matrix(1 0 -0 1 0 122.838)" font-size="6.9738" font-family="Computer Modern"><tspan y="-51.196" x="262.932">4</tspan></text>
<text xml:space="preserve" transform="matrix(1 0 -0 1 0 122.838008)" font-size="9.9626" font-family="Computer Modern" font-style="italic"><tspan y="-50.706" x="289.851">v</tspan></text>
<text xml:space="preserve" transform="matrix(1 0 -0 1 0 122.838008)" font-size="6.9738" font-family="Computer Modern"><tspan y="-49.212" x="294.68003">5</tspan></text>
<text fill="#cc0000" xml:space="preserve" transform="matrix(1 0 -0 1 0 122.838)" font-size="9.9626" font-family="Computer Modern" font-style="italic"><tspan y="-108.584" x="257.939">&#x03b3;</tspan></text>
<text fill="#cc0000" xml:space="preserve" transform="matrix(1 0 -0 1 0 122.838)" font-size="6.9738" font-family="Computer Modern"><tspan y="-107.09" x="263.096">1</tspan></text>
<text fill="#e60000" xml:space="preserve" transform="matrix(1 0 -0 1 0 122.838008)" font-size="9.9626" font-family="Computer Modern" font-style="italic"><tspan y="-30.971" x="257.939">&#x03b3;</tspan></text>
<text fill="#e60000" xml:space="preserve" transform="matrix(1 0 -0 1 0 122.838008)" font-size="6.9738" font-family="Computer Modern"><tspan y="-29.477002" x="263.096">2</tspan></text>
<path transform="matrix(1,0,0,-1,24.643,100.498)" stroke-width="7.97021" stroke-linecap="butt" stroke-miterlimit="10" stroke-linejoin="miter" fill="none" stroke="#cccccc" d="M337.32569 39.68535C337.32569 45.1648 332.8838 49.60666 327.40437 49.60666 321.9249 49.60666 317.48307 45.1648 317.48307 39.68535 317.48307 34.2059 321.9249 29.76404 327.40437 29.76404 332.8838 29.76404 337.32569 34.2059 337.32569 39.68535ZM327.40437 39.68535"/>
<path transform="matrix(1,0,0,-1,24.643,100.498)" stroke-width="7.97021" stroke-linecap="butt" stroke-miterlimit="10" stroke-linejoin="miter" fill="none" stroke="#cccccc" d="M396.8537 39.68535C396.8537 45.1648 392.41184 49.60666 386.9324 49.60666 381.45295 49.60666 377.01109 45.1648 377.01109 39.68535 377.01109 34.2059 381.45295 29.76404 386.9324 29.76404 392.41184 29.76404 396.8537 34.2059 396.8537 39.68535ZM386.9324 39.68535"/>
<path transform="matrix(1,0,0,-1,24.643,100.498)" stroke-width="7.97021" stroke-linecap="butt" stroke-miterlimit="10" stroke-linejoin="miter" fill="none" stroke="#cccccc" d="M337.3257 39.68535H377.01103"/>
<path transform="matrix(1,0,0,-1,24.643,100.498)" stroke-width="1.59404" stroke-linecap="butt" stroke-miterlimit="10" stroke-linejoin="miter" fill="none" stroke="#000000" d="M337.32569 39.68535C337.32569 45.1648 332.8838 49.60666 327.40437 49.60666 321.9249 49.60666 317.48307 45.1648 317.48307 39.68535 317.48307 34.2059 321.9249 29.76404 327.40437 29.76404 332.8838 29.76404 337.32569 34.2059 337.32569 39.68535ZM327.40437 39.68535"/>
<path transform="matrix(1,0,0,-1,24.643,100.498)" stroke-width="1.59404" stroke-linecap="butt" stroke-miterlimit="10" stroke-linejoin="miter" fill="none" stroke="#000000" d="M396.8537 39.68535C396.8537 45.1648 392.41184 49.60666 386.9324 49.60666 381.45295 49.60666 377.01109 45.1648 377.01109 39.68535 377.01109 34.2059 381.45295 29.76404 386.9324 29.76404 392.41184 29.76404 396.8537 34.2059 396.8537 39.68535ZM386.9324 39.68535"/>
<path transform="matrix(1,0,0,-1,24.643,100.498)" stroke-width="1.59404" stroke-linecap="butt" stroke-miterlimit="10" stroke-linejoin="miter" fill="none" stroke="#000000" d="M337.3257 39.68535H377.01103"/>
<path transform="matrix(1,0,0,-1,361.96403,60.813)" d="M2.98883 0C2.98883 1.6507 1.6507 2.98883 0 2.98883-1.6507 2.98883-2.98883 1.6507-2.98883 0-2.98883-1.6507-1.6507-2.98883 0-2.98883 1.6507-2.98883 2.98883-1.6507 2.98883 0ZM0 0" fill="#ff0000"/>
<path transform="matrix(1,0,0,-1,361.96403,60.813)" stroke-width=".3985" stroke-linecap="butt" stroke-miterlimit="10" stroke-linejoin="miter" fill="none" stroke="#ff0000" d="M2.98883 0C2.98883 1.6507 1.6507 2.98883 0 2.98883-1.6507 2.98883-2.98883 1.6507-2.98883 0-2.98883-1.6507-1.6507-2.98883 0-2.98883 1.6507-2.98883 2.98883-1.6507 2.98883 0ZM0 0"/>
<path transform="matrix(1,0,0,-1,401.64903,60.813)" d="M2.98883 0C2.98883 1.6507 1.6507 2.98883 0 2.98883-1.6507 2.98883-2.98883 1.6507-2.98883 0-2.98883-1.6507-1.6507-2.98883 0-2.98883 1.6507-2.98883 2.98883-1.6507 2.98883 0ZM0 0" fill="#ff8000"/>
<path transform="matrix(1,0,0,-1,401.64903,60.813)" stroke-width=".3985" stroke-linecap="butt" stroke-miterlimit="10" stroke-linejoin="miter" fill="none" stroke="#ff8000" d="M2.98883 0C2.98883 1.6507 1.6507 2.98883 0 2.98883-1.6507 2.98883-2.98883 1.6507-2.98883 0-2.98883-1.6507-1.6507-2.98883 0-2.98883 1.6507-2.98883 2.98883-1.6507 2.98883 0ZM0 0"/>
<path transform="matrix(1,0,0,-1,24.643,100.498)" stroke-width="7.97021" stroke-linecap="round" stroke-miterlimit="10" stroke-linejoin="miter" fill="none" stroke="#cccccc" d="M317.48304 0H396.85374"/>
<path transform="matrix(1,0,0,-1,24.643,100.498)" stroke-width="1.59404" stroke-linecap="butt" stroke-miterlimit="10" stroke-linejoin="miter" fill="none" stroke="#000000" d="M317.48304 0H396.85374"/>
<path transform="matrix(1,0,0,-1,342.122,100.498)" d="M2.98883 0C2.98883 1.6507 1.6507 2.98883 0 2.98883-1.6507 2.98883-2.98883 1.6507-2.98883 0-2.98883-1.6507-1.6507-2.98883 0-2.98883 1.6507-2.98883 2.98883-1.6507 2.98883 0ZM0 0" fill="#0000ff"/>
<path transform="matrix(1,0,0,-1,342.122,100.498)" stroke-width=".3985" stroke-linecap="butt" stroke-miterlimit="10" stroke-linejoin="miter" fill="none" stroke="#0000ff" d="M2.98883 0C2.98883 1.6507 1.6507 2.98883 0 2.98883-1.6507 2.98883-2.98883 1.6507-2.98883 0-2.98883-1.6507-1.6507-2.98883 0-2.98883 1.6507-2.98883 2.98883-1.6507 2.98883 0ZM0 0"/>
<path transform="matrix(1,0,0,-1,421.492,100.498)" d="M2.98883 0C2.98883 1.6507 1.6507 2.98883 0 2.98883-1.6507 2.98883-2.98883 1.6507-2.98883 0-2.98883-1.6507-1.6507-2.98883 0-2.98883 1.6507-2.98883 2.98883-1.6507 2.98883 0ZM0 0" fill="#008000"/>
<path transform="matrix(1,0,0,-1,421.492,100.498)" stroke-width=".3985" stroke-linecap="butt" stroke-miterlimit="10" stroke-linejoin="miter" fill="none" stroke="#008000" d="M2.98883 0C2.98883 1.6507 1.6507 2.98883 0 2.98883-1.6507 2.98883-2.98883 1.6507-2.98883 0-2.98883-1.6507-1.6507-2.98883 0-2.98883 1.6507-2.98883 2.98883-1.6507 2.98883 0ZM0 0"/>
<path transform="matrix(1,0,0,-1,24.643,100.498)" stroke-width="1.59404" stroke-linecap="butt" stroke-miterlimit="10" stroke-linejoin="miter" fill="none" stroke="#000000" d="M458.36619 59.52805C458.36619 70.48697 453.92433 79.37071 448.4449 79.37071 442.96543 79.37071 438.52357 70.48697 438.52357 59.52805 438.52357 48.56912 442.96543 39.6854 448.4449 39.6854 453.92433 39.6854 458.36619 48.56912 458.36619 59.52805ZM448.4449 59.52805"/>
<path transform="matrix(1,0,0,-1,24.643,100.498)" stroke-width="1.59404" stroke-linecap="butt" stroke-miterlimit="10" stroke-linejoin="miter" fill="none" stroke="#000000" d="M448.4449 0V39.68536"/>
<path transform="matrix(1,0,0,-1,24.643,100.498)" d="M452.6292 0C452.6292 2.31097 450.75584 4.18434 448.4449 4.18434 446.1339 4.18434 444.26054 2.31097 444.26054 0 444.26054-2.31097 446.1339-4.18434 448.4449-4.18434 450.75584-4.18434 452.6292-2.31097 452.6292 0ZM448.4449 0"/>
<path transform="matrix(1,0,0,-1,24.643,100.498)" stroke-width=".3985" stroke-linecap="butt" stroke-miterlimit="10" stroke-linejoin="miter" fill="none" stroke="#000000" d="M452.6292 0C452.6292 2.31097 450.75584 4.18434 448.4449 4.18434 446.1339 4.18434 444.26054 2.31097 444.26054 0 444.26054-2.31097 446.1339-4.18434 448.4449-4.18434 450.75584-4.18434 452.6292-2.31097 452.6292 0ZM448.4449 0"/>
<path transform="matrix(1,0,0,-1,24.643,100.498)" d="M452.6292 39.68536C452.6292 41.99634 450.75584 43.8697 448.4449 43.8697 446.1339 43.8697 444.26054 41.99634 444.26054 39.68536 444.26054 37.37439 446.1339 35.50102 448.4449 35.50102 450.75584 35.50102 452.6292 37.37439 452.6292 39.68536ZM448.4449 39.68536"/>
<path transform="matrix(1,0,0,-1,24.643,100.498)" stroke-width=".3985" stroke-linecap="butt" stroke-miterlimit="10" stroke-linejoin="miter" fill="none" stroke="#000000" d="M452.6292 39.68536C452.6292 41.99634 450.75584 43.8697 448.4449 43.8697 446.1339 43.8697 444.26054 41.99634 444.26054 39.68536 444.26054 37.37439 446.1339 35.50102 448.4449 35.50102 450.75584 35.50102 452.6292 37.37439 452.6292 39.68536ZM448.4449 39.68536"/>
<path transform="matrix(1,0,0,-1,24.643,100.498)" stroke-width="1.59404" stroke-linecap="butt" stroke-miterlimit="10" stroke-linejoin="miter" fill="none" stroke="#000000" d="M448.4449 3.96877 458.36619-15.87389"/>
<path transform="matrix(1,0,0,-1,24.643,100.498)" stroke-width="1.59404" stroke-linecap="butt" stroke-miterlimit="10" stroke-linejoin="miter" fill="none" stroke="#000000" d="M448.4449 3.96877 438.52357-15.87389"/>
<text xml:space="preserve" transform="matrix(1 0 -0 1 0 122.838)" font-size="9.9626" font-family="Computer Modern"><tspan y="-19.13" x="479.437">0</tspan></text>
<text xml:space="preserve" transform="matrix(1 0 -0 1 0 122.838)" font-size="9.9626" font-family="Computer Modern"><tspan y="-58.815" x="479.437">0</tspan></text>
</svg>
